REM DIRINDEX 1\3,1\2\4,1\2\5,1\2\6
REM DIRNAME folder01,folder02,folder03,folder04,folder05,folder06
TITLE ""
FILE "043.mp3" MP3
  TRACK 01 AUDIO
    TITLE "4:cjc137_1762"
    INDEX 01 00:00:00
  TRACK 02 AUDIO
    TITLE "0:"
    INDEX 01 00:01:07
  TRACK 03 AUDIO
    TITLE "6:cjc137_1763"
    INDEX 01 00:01:17
  TRACK 04 AUDIO
    TITLE "0:"
    INDEX 01 00:02:08
  TRACK 05 AUDIO
    TITLE "5:cjc137_1764"
    INDEX 01 00:02:14
  TRACK 06 AUDIO
    TITLE "0:"
    INDEX 01 00:03:19
  TRACK 07 AUDIO
    TITLE "4:cjc137_1765"
    INDEX 01 00:04:29
  TRACK 08 AUDIO
    TITLE "0:"
    INDEX 01 00:05:32
  TRACK 09 AUDIO
    TITLE "6:cjc137_1766"
    INDEX 01 00:05:40
  TRACK 10 AUDIO
    TITLE "0:"
    INDEX 01 00:06:73
  TRACK 11 AUDIO
    TITLE "5:cjc137_1767"
    INDEX 01 00:07:05
  TRACK 12 AUDIO
    TITLE "0:"
    INDEX 01 00:08:07
  TRACK 13 AUDIO
    TITLE "4:cjc137_1768"
    INDEX 01 00:09:16
  TRACK 14 AUDIO
    TITLE "0:"
    INDEX 01 00:10:31
  TRACK 15 AUDIO
    TITLE "6:cjc137_1769"
    INDEX 01 00:10:41
  TRACK 16 AUDIO
    TITLE "0:"
    INDEX 01 00:12:40
  TRACK 17 AUDIO
    TITLE "5:cjc137_1770"
    INDEX 01 00:12:50
  TRACK 18 AUDIO
    TITLE "0:"
    INDEX 01 00:13:67
  TRACK 19 AUDIO
    TITLE "4:cjc137_1771"
    INDEX 01 00:15:01
  TRACK 20 AUDIO
    TITLE "0:"
    INDEX 01 00:16:14
  TRACK 21 AUDIO
    TITLE "6:cjc137_1772"
    INDEX 01 00:16:22
  TRACK 22 AUDIO
    TITLE "0:"
    INDEX 01 00:17:47
  TRACK 23 AUDIO
    TITLE "5:cjc137_1773"
    INDEX 01 00:17:55
  TRACK 24 AUDIO
    TITLE "0:"
    INDEX 01 00:18:68
  TRACK 25 AUDIO
    TITLE "4:cjc137_1774"
    INDEX 01 00:20:00
  TRACK 26 AUDIO
    TITLE "0:"
    INDEX 01 00:20:67
  TRACK 27 AUDIO
    TITLE "6:cjc137_1775"
    INDEX 01 00:21:09
  TRACK 28 AUDIO
    TITLE "0:"
    INDEX 01 00:22:11
  TRACK 29 AUDIO
    TITLE "5:cjc137_1776"
    INDEX 01 00:22:19
  TRACK 30 AUDIO
    TITLE "0:"
    INDEX 01 00:23:14
  TRACK 31 AUDIO
    TITLE "4:cjc137_1777"
    INDEX 01 00:24:27
  TRACK 32 AUDIO
    TITLE "0:"
    INDEX 01 00:25:37
  TRACK 33 AUDIO
    TITLE "6:cjc137_1778"
    INDEX 01 00:25:46
  TRACK 34 AUDIO
    TITLE "0:"
    INDEX 01 00:26:66
  TRACK 35 AUDIO
    TITLE "5:cjc137_1779"
    INDEX 01 00:26:71
  TRACK 36 AUDIO
    TITLE "0:"
    INDEX 01 00:28:10
  TRACK 37 AUDIO
    TITLE "4:cjc137_1780"
    INDEX 01 00:29:15
  TRACK 38 AUDIO
    TITLE "0:"
    INDEX 01 00:30:40
  TRACK 39 AUDIO
    TITLE "6:cjc137_1781"
    INDEX 01 00:30:46
  TRACK 40 AUDIO
    TITLE "0:"
    INDEX 01 00:31:61
  TRACK 41 AUDIO
    TITLE "5:cjc137_1782"
    INDEX 01 00:31:69
  TRACK 42 AUDIO
    TITLE "0:"
    INDEX 01 00:33:19
  TRACK 43 AUDIO
    TITLE "4:cjc137_1783"
    INDEX 01 00:34:24
  TRACK 44 AUDIO
    TITLE "0:"
    INDEX 01 00:35:19
  TRACK 45 AUDIO
    TITLE "6:cjc137_1784"
    INDEX 01 00:35:27
  TRACK 46 AUDIO
    TITLE "0:"
    INDEX 01 00:36:23
  TRACK 47 AUDIO
    TITLE "5:cjc137_1785"
    INDEX 01 00:36:29
  TRACK 48 AUDIO
    TITLE "0:"
    INDEX 01 00:37:22
  TRACK 49 AUDIO
    TITLE "4:cjc137_1786"
    INDEX 01 00:38:31
  TRACK 50 AUDIO
    TITLE "0:"
    INDEX 01 00:39:43
  TRACK 51 AUDIO
    TITLE "6:cjc137_1787"
    INDEX 01 00:39:52
  TRACK 52 AUDIO
    TITLE "0:"
    INDEX 01 00:40:44
  TRACK 53 AUDIO
    TITLE "5:cjc137_1788"
    INDEX 01 00:40:50
  TRACK 54 AUDIO
    TITLE "0:"
    INDEX 01 00:41:61
  TRACK 55 AUDIO
    TITLE "4:cjc137_1789"
    INDEX 01 00:42:70
  TRACK 56 AUDIO
    TITLE "0:"
    INDEX 01 00:44:22
  TRACK 57 AUDIO
    TITLE "6:cjc137_1790"
    INDEX 01 00:44:32
  TRACK 58 AUDIO
    TITLE "0:"
    INDEX 01 00:45:55
  TRACK 59 AUDIO
    TITLE "5:cjc137_1791"
    INDEX 01 00:45:61
  TRACK 60 AUDIO
    TITLE "0:"
    INDEX 01 00:47:13
  TRACK 61 AUDIO
    TITLE "4:cjc137_1792"
    INDEX 01 00:48:22
  TRACK 62 AUDIO
    TITLE "0:"
    INDEX 01 00:49:20
  TRACK 63 AUDIO
    TITLE "6:cjc137_1793"
    INDEX 01 00:49:27
  TRACK 64 AUDIO
    TITLE "0:"
    INDEX 01 00:50:23
  TRACK 65 AUDIO
    TITLE "5:cjc137_1794"
    INDEX 01 00:50:31
  TRACK 66 AUDIO
    TITLE "0:"
    INDEX 01 00:51:28
  TRACK 67 AUDIO
    TITLE "4:cjc137_1795"
    INDEX 01 00:52:36
  TRACK 68 AUDIO
    TITLE "0:"
    INDEX 01 00:53:64
  TRACK 69 AUDIO
    TITLE "6:cjc137_1796"
    INDEX 01 00:53:74
  TRACK 70 AUDIO
    TITLE "0:"
    INDEX 01 00:55:38
  TRACK 71 AUDIO
    TITLE "5:cjc137_1797"
    INDEX 01 00:55:46
  TRACK 72 AUDIO
    TITLE "0:"
    INDEX 01 00:57:01
  TRACK 73 AUDIO
    TITLE "4:cjc137_1798"
    INDEX 01 00:58:09
  TRACK 74 AUDIO
    TITLE "0:"
    INDEX 01 00:59:04
  TRACK 75 AUDIO
    TITLE "6:cjc137_1799"
    INDEX 01 00:59:20
  TRACK 76 AUDIO
    TITLE "0:"
    INDEX 01 01:00:10
  TRACK 77 AUDIO
    TITLE "5:cjc137_1800"
    INDEX 01 01:00:19
  TRACK 78 AUDIO
    TITLE "0:"
    INDEX 01 01:01:17
  TRACK 79 AUDIO
    TITLE "4:cjc137_1801"
    INDEX 01 01:02:30
  TRACK 80 AUDIO
    TITLE "0:"
    INDEX 01 01:03:37
  TRACK 81 AUDIO
    TITLE "6:cjc137_1802"
    INDEX 01 01:03:49
  TRACK 82 AUDIO
    TITLE "0:"
    INDEX 01 01:04:37
  TRACK 83 AUDIO
    TITLE "5:cjc137_1803"
    INDEX 01 01:04:47
  TRACK 84 AUDIO
    TITLE "0:"
    INDEX 01 01:05:56
